<?xml version="1.0" standalone="no"?>
<!DOCTYPE svg PUBLIC "-//W3C//DTD SVG 20010904//EN"
 "http://www.w3.org/TR/2001/REC-SVG-20010904/DTD/svg10.dtd">
<svg version="1.0" xmlns="http://www.w3.org/2000/svg"
 width="192.000000pt" height="192.000000pt" viewBox="0 0 192.000000 192.000000"
 preserveAspectRatio="xMidYMid meet">
<metadata>
Created by potrace 1.11, written by Peter Selinger 2001-2013
</metadata>
<g transform="translate(0.000000,192.000000) scale(0.100000,-0.100000)"
fill="#000000" stroke="none">
<path d="M272 1466 c-97 -16 -172 -35 -190 -49 -17 -13 -15 -98 4 -125 13 -19
24 -22 80 -22 l64 0 0 -282 c0 -156 -3 -306 -6 -335 l-7 -52 -51 -11 c-28 -6
-61 -18 -75 -26 -21 -14 -23 -22 -19 -70 3 -30 10 -60 16 -66 16 -16 368 6
502 31 58 11 177 26 265 32 159 12 160 13 210 47 28 20 45 29 38 21 -11 -13 3
-17 105 -28 64 -6 162 -21 217 -33 116 -25 147 -26 218 -2 96 31 174 104 197
185 18 62 12 146 -14 197 -28 54 -54 81 -114 115 l-43 24 34 20 c111 66 130
214 41 313 -79 87 -180 104 -549 93 -254 -8 -273 -8 -330 11 -51 17 -94 20
-285 22 -152 2 -252 -1 -308 -10z m1190 -138 c21 -6 52 -27 68 -45 25 -28 30
-43 30 -84 0 -102 -57 -148 -182 -149 l-68 0 0 145 0 145 56 0 c31 0 74 -5 96
-12z m-713 -49 c119 -59 166 -157 166 -344 0 -179 -38 -269 -134 -317 -92 -47
-207 -31 -238 32 -9 18 -13 109 -13 343 l0 317 78 0 c68 0 87 -4 141 -31z
m759 -353 c69 -35 108 -116 99 -199 -14 -110 -76 -166 -192 -169 -112 -3 -105
-16 -105 204 l0 191 84 -6 c47 -3 98 -13 114 -21z m-448 -340 c0 -2 -8 -10
-17 -17 -16 -13 -17 -12 -4 4 13 16 21 21 21 13z m-213 -52 c-3 -3 -12 -4 -19
-1 -8 3 -5 6 6 6 11 1 17 -2 13 -5z m-730 -36 c-3 -8 -6 -5 -6 6 -1 11 2 17 5
13 3 -3 4 -12 1 -19z m161 -35 c-10 -2 -28 -2 -40 0 -13 2 -5 4 17 4 22 1 32
-1 23 -4z"/>
</g>
</svg>
