<?xml version="1.0" standalone="no"?>
<!DOCTYPE svg PUBLIC "-//W3C//DTD SVG 20010904//EN"
 "http://www.w3.org/TR/2001/REC-SVG-20010904/DTD/svg10.dtd">
<svg version="1.0" xmlns="http://www.w3.org/2000/svg"
 width="400.000000pt" height="400.000000pt" viewBox="0 0 400.000000 400.000000"
 preserveAspectRatio="xMidYMid meet">
<metadata>
Created by potrace 1.11, written by Peter Selinger 2001-2013
</metadata>
<g transform="translate(0.000000,400.000000) scale(0.100000,-0.100000)"
fill="#000000" stroke="none">
<path d="M1415 3931 c-3 -5 -29 -9 -58 -7 -55 2 -107 -10 -107 -25 0 -5 -22
-9 -49 -9 -41 0 -51 -4 -56 -20 -5 -15 -13 -19 -36 -16 -21 3 -34 -2 -42 -15
-8 -13 -23 -19 -45 -19 -25 0 -35 -5 -39 -19 -3 -13 -12 -18 -24 -16 -11 2
-29 -5 -39 -15 -11 -11 -24 -20 -30 -20 -5 0 -10 -7 -10 -15 0 -13 -26 -21
-53 -16 -5 1 -11 -8 -14 -19 -3 -13 -11 -19 -19 -16 -8 3 -14 -1 -14 -9 0 -8
-5 -15 -11 -15 -7 0 -23 -12 -36 -26 -13 -15 -30 -23 -38 -20 -9 3 -15 -1 -15
-9 0 -8 -6 -15 -14 -15 -7 0 -16 -9 -19 -21 -3 -12 -10 -18 -16 -14 -6 3 -11
2 -11 -4 0 -12 -59 -71 -71 -71 -6 0 -7 -4 -4 -10 3 -5 -3 -17 -15 -27 -11
-10 -20 -28 -20 -40 0 -13 -3 -22 -7 -22 -23 4 -31 -3 -28 -23 3 -13 -3 -27
-15 -35 -14 -10 -18 -23 -16 -43 3 -27 -3 -35 -26 -31 -5 0 -8 -19 -8 -44 0
-31 -5 -47 -17 -53 -12 -7 -18 -26 -20 -68 -1 -32 -6 -65 -9 -74 -12 -27 -11
-673 1 -695 6 -11 10 -40 9 -65 -3 -58 3 -80 22 -73 11 4 14 -4 14 -33 0 -20
7 -45 16 -55 8 -9 16 -29 17 -43 1 -15 8 -30 15 -35 7 -4 14 -17 17 -29 5 -30
15 -43 26 -37 5 4 9 -4 9 -15 0 -13 8 -24 19 -27 13 -3 17 -12 15 -30 -2 -18
3 -27 17 -30 10 -3 19 -10 19 -16 0 -6 7 -18 16 -28 8 -9 16 -26 17 -38 1 -11
7 -21 13 -21 6 0 14 -9 17 -20 3 -11 11 -19 19 -18 7 2 12 -2 11 -9 -4 -17
100 -123 120 -123 11 0 17 -8 17 -21 0 -15 5 -19 15 -15 9 3 15 0 15 -10 0 -9
9 -18 19 -21 18 -5 19 -21 17 -476 -1 -412 -3 -472 -16 -472 -12 0 -15 -13
-14 -62 1 -53 -2 -64 -18 -69 -15 -4 -18 -16 -18 -73 0 -50 -4 -72 -15 -81 -9
-8 -12 -17 -7 -22 5 -5 99 -9 208 -8 109 1 204 1 209 1 6 0 111 0 235 0 124 0
232 0 240 0 16 0 452 0 485 0 281 -1 350 1 354 8 4 5 5 48 5 95 -2 78 0 86 17
86 15 0 18 6 15 30 -2 16 1 30 7 30 20 0 97 44 97 56 0 7 12 11 30 10 21 -2
32 3 36 16 4 14 16 18 49 18 32 0 44 4 47 18 4 16 20 17 159 17 143 -1 195 7
183 27 -3 4 24 8 60 8 52 0 66 3 66 15 0 14 11 18 53 18 10 0 17 7 17 18 0 12
7 19 19 19 17 0 19 6 17 35 -3 28 -1 35 13 33 14 -3 16 14 19 144 2 133 1 147
-15 152 -14 4 -18 17 -18 53 0 47 1 48 35 53 l35 5 -2 63 c-2 47 1 64 12 68 8
3 17 21 21 40 3 18 11 32 18 31 7 -1 12 19 14 56 2 44 0 59 -12 63 -20 8 -21
44 -1 44 8 0 15 7 15 15 0 15 16 19 53 16 11 -2 17 5 17 17 0 16 6 20 30 18
17 -1 30 1 30 5 0 4 8 15 17 25 21 21 23 31 24 119 1 79 -3 104 -17 113 -6 4
-13 15 -17 25 -3 9 -14 17 -23 17 -8 0 -14 6 -12 12 4 12 -31 47 -49 50 -4 1
-16 18 -25 37 -9 20 -17 32 -18 26 -1 -5 -5 1 -9 15 -4 14 -13 24 -19 22 -7
-1 -12 6 -12 17 0 10 -8 21 -18 23 -10 3 -18 15 -19 29 -1 13 -9 29 -18 35 -8
6 -15 18 -15 27 0 9 -8 23 -17 33 -10 10 -18 27 -19 38 -3 57 -5 66 -18 66
-11 0 -14 36 -15 197 -1 169 -3 199 -18 215 -13 15 -17 37 -16 108 1 82 -1 90
-18 90 -17 0 -19 7 -18 59 1 44 -2 64 -15 76 -9 9 -16 26 -16 38 0 13 -7 32
-15 44 -9 12 -15 26 -14 30 2 15 -13 53 -22 53 -5 0 -9 6 -9 13 0 7 -9 23 -20
35 -12 12 -18 22 -15 22 3 0 1 9 -5 20 -6 11 -15 18 -21 15 -5 -4 -9 2 -9 12
0 10 -9 24 -20 31 -12 7 -18 17 -14 23 6 10 -147 169 -163 169 -6 0 -18 9 -28
20 -10 11 -27 20 -37 20 -11 0 -16 5 -13 10 3 6 1 11 -4 11 -6 1 -15 3 -21 4
-5 1 -17 3 -26 4 -8 0 -12 5 -9 11 7 11 -39 25 -54 15 -7 -3 -11 2 -11 14 0
17 -6 21 -35 21 -28 0 -35 4 -35 19 0 15 -7 18 -35 16 -28 -1 -35 2 -35 17 0
15 -8 18 -50 18 -38 0 -50 4 -50 15 0 16 -4 17 -65 19 -28 1 -40 5 -40 16 0
11 -14 16 -50 18 -29 2 -58 10 -70 21 -15 13 -36 17 -87 15 -38 -1 -68 2 -68
7 0 12 -687 12 -695 0z"/>
</g>
</svg>
